<svg width="43" height="9" viewBox="0 0 43 9" fill="none" xmlns="http://www.w3.org/2000/svg">
<path d="M3.53906 7.65234C5.27734 7.65234 6.14648 6.62891 6.14648 4.58203C6.14648 2.83984 5.27734 1.96875 3.53906 1.96875H1.81055V7.65234H3.53906ZM0.257812 9V0.621094H3.53906C6.3125 0.621094 7.69922 1.94141 7.69922 4.58203C7.69922 7.52734 6.3125 9 3.53906 9H0.257812ZM14.7598 0.621094V1.95703H10.5645V4.06641H14.5605V5.45508H10.5469V7.65234H14.8418V9H9.02344V0.621094H14.7598ZM17.8301 0.621094V7.65234H21.1582V9H16.2773V0.621094H17.8301ZM28.3652 0.621094V1.95703H24.1699V4.06641H28.166V5.45508H24.1523V7.65234H28.4473V9H22.6289V0.621094H28.3652ZM35.3613 0.621094V1.96875H32.959V9H31.4062V1.96875H29.0039V0.621094H35.3613ZM41.9824 0.621094V1.95703H37.7871V4.06641H41.7832V5.45508H37.7695V7.65234H42.0645V9H36.2461V0.621094H41.9824Z" fill="#D81159"/>
</svg>
