<svg width="22" height="10" viewBox="0 0 22 10" fill="none" xmlns="http://www.w3.org/2000/svg">
<path d="M7.67773 8.61328C7.00195 8.91016 6.15625 9.05859 5.14062 9.05859C2.18359 9.05859 0.705078 7.60352 0.705078 4.69336C0.705078 1.93945 2.20898 0.5625 5.2168 0.5625C6.13477 0.5625 6.95508 0.699219 7.67773 0.972656V2.37891C6.95508 2.06641 6.17383 1.91016 5.33398 1.91016C3.32227 1.91016 2.31641 2.83789 2.31641 4.69336C2.31641 6.70508 3.26562 7.71094 5.16406 7.71094C5.44531 7.71094 5.76562 7.66406 6.125 7.57031V5.13281H7.67773V8.61328ZM14.8789 0.621094V1.95703H10.6836V4.06641H14.6797V5.45508H10.666V7.65234H14.9609V9H9.14258V0.621094H14.8789ZM21.875 0.621094V1.96875H19.4727V9H17.9199V1.96875H15.5176V0.621094H21.875Z" fill="#39AA75"/>
</svg>
