<svg width="34" height="9" viewBox="0 0 34 9" fill="none"
    xmlns="http://www.w3.org/2000/svg">
    <path d="M0.292969 9V0.621094H1.8457V4.07812H5.97656V0.621094H7.5293V9H5.97656V5.42578H1.8457V9H0.292969ZM15.0293 0.621094V1.95703H10.834V4.06641H14.8301V5.45508H10.8164V7.65234H15.1113V9H9.29297V0.621094H15.0293ZM17.4082 9H15.8145L19.3711 0.621094H21.041L24.6738 9H23.0039L22.0488 6.71484H19.2656L19.7988 5.36719H21.4863L20.168 2.2207L17.4082 9ZM28.9805 7.65234C30.7188 7.65234 31.5879 6.62891 31.5879 4.58203C31.5879 2.83984 30.7188 1.96875 28.9805 1.96875H27.252V7.65234H28.9805ZM25.6992 9V0.621094H28.9805C31.7539 0.621094 33.1406 1.94141 33.1406 4.58203C33.1406 7.52734 31.7539 9 28.9805 9H25.6992Z" fill="#7209B7"/>
</svg>
