<svg width="53" height="10" viewBox="0 0 53 10" fill="none" xmlns="http://www.w3.org/2000/svg">
<path d="M2.28906 4.78711C2.28906 6.73633 3.1543 7.71094 4.88477 7.71094C6.57227 7.71094 7.41602 6.73633 7.41602 4.78711C7.41602 2.86914 6.57227 1.91016 4.88477 1.91016C3.1543 1.91016 2.28906 2.86914 2.28906 4.78711ZM0.677734 4.82227C0.677734 1.98242 2.08008 0.5625 4.88477 0.5625C7.64648 0.5625 9.02734 1.98242 9.02734 4.82227C9.02734 7.64648 7.64648 9.05859 4.88477 9.05859C2.20508 9.05859 0.802734 7.64648 0.677734 4.82227ZM10.498 9V0.621094H14.248C15.959 0.621094 16.8145 1.4082 16.8145 2.98242C16.8145 4.68945 15.6445 5.72266 13.3047 6.08203L13.082 4.69922C14.4883 4.44531 15.1914 3.88867 15.1914 3.0293C15.1914 2.33398 14.8438 1.98633 14.1484 1.98633H12.0508V9H10.498ZM23.3242 0.621094V1.96875H20.9219V9H19.3691V1.96875H16.9668V0.621094H23.3242ZM25.7617 0.621094V9H24.209V0.621094H25.7617ZM28.8438 4.78711C28.8438 6.73633 29.709 7.71094 31.4395 7.71094C33.127 7.71094 33.9707 6.73633 33.9707 4.78711C33.9707 2.86914 33.127 1.91016 31.4395 1.91016C29.709 1.91016 28.8438 2.86914 28.8438 4.78711ZM27.2324 4.82227C27.2324 1.98242 28.6348 0.5625 31.4395 0.5625C34.2012 0.5625 35.582 1.98242 35.582 4.82227C35.582 7.64648 34.2012 9.05859 31.4395 9.05859C28.7598 9.05859 27.3574 7.64648 27.2324 4.82227ZM37.0527 9V0.621094H38.6055L43.0293 6.72656V0.621094H44.5234V9H42.9707L38.5469 2.76562V9H37.0527ZM46.1406 8.64844V7.24219C46.9805 7.55469 47.9297 7.71094 48.9883 7.71094C50.2734 7.71094 50.916 7.28125 50.916 6.42188C50.916 5.79688 50.5215 5.48438 49.7324 5.48438H48.4199C46.7051 5.48438 45.8477 4.70312 45.8477 3.14062C45.8477 1.42188 47.0684 0.5625 49.5098 0.5625C50.4473 0.5625 51.3359 0.699219 52.1758 0.972656V2.37891C51.3359 2.06641 50.4473 1.91016 49.5098 1.91016C48.1035 1.91016 47.4004 2.32031 47.4004 3.14062C47.4004 3.76562 47.7402 4.07812 48.4199 4.07812H49.7324C51.5566 4.07812 52.4688 4.85938 52.4688 6.42188C52.4688 8.17969 51.3086 9.05859 48.9883 9.05859C47.9297 9.05859 46.9805 8.92188 46.1406 8.64844Z" fill="#028090"/>
</svg>
