<svg width="39" height="10" viewBox="0 0 39 10" fill="none" xmlns="http://www.w3.org/2000/svg">
<path d="M0.375 9V0.621094H4.125C5.83594 0.621094 6.69141 1.4082 6.69141 2.98242C6.69141 4.68945 5.52148 5.72266 3.18164 6.08203L2.95898 4.69922C4.36523 4.44531 5.06836 3.88867 5.06836 3.0293C5.06836 2.33398 4.7207 1.98633 4.02539 1.98633H1.92773V9H0.375ZM8.58398 9H6.99023L10.5469 0.621094H12.2168L15.8496 9H14.1797L13.2246 6.71484H10.4414L10.9746 5.36719H12.6621L11.3438 2.2207L8.58398 9ZM22.3535 0.621094V1.96875H19.9512V9H18.3984V1.96875H15.9961V0.621094H22.3535ZM29.918 8.64844C29.1953 8.92188 28.375 9.05859 27.457 9.05859C24.4492 9.05859 22.9453 7.60352 22.9453 4.69336C22.9453 1.93945 24.4492 0.5625 27.457 0.5625C28.375 0.5625 29.1953 0.699219 29.918 0.972656V2.37891C29.1953 2.06641 28.4141 1.91016 27.5742 1.91016C25.5625 1.91016 24.5566 2.83789 24.5566 4.69336C24.5566 6.70508 25.5625 7.71094 27.5742 7.71094C28.4141 7.71094 29.1953 7.55469 29.918 7.24219V8.64844ZM31.3828 9V0.621094H32.9355V4.07812H37.0664V0.621094H38.6191V9H37.0664V5.42578H32.9355V9H31.3828Z" fill="#3F37C9"/>
</svg>
