<svg width="30" height="10" viewBox="0 0 30 10" fill="none" xmlns="http://www.w3.org/2000/svg">
<path d="M0.00976562 9V0.621094H3.75977C5.4707 0.621094 6.32617 1.4082 6.32617 2.98242C6.32617 4.68945 5.15625 5.72266 2.81641 6.08203L2.59375 4.69922C4 4.44531 4.70312 3.88867 4.70312 3.0293C4.70312 2.33398 4.35547 1.98633 3.66016 1.98633H1.5625V9H0.00976562ZM8.67578 4.78711C8.67578 6.73633 9.54102 7.71094 11.2715 7.71094C12.959 7.71094 13.8027 6.73633 13.8027 4.78711C13.8027 2.86914 12.959 1.91016 11.2715 1.91016C9.54102 1.91016 8.67578 2.86914 8.67578 4.78711ZM7.06445 4.82227C7.06445 1.98242 8.4668 0.5625 11.2715 0.5625C14.0332 0.5625 15.4141 1.98242 15.4141 4.82227C15.4141 7.64648 14.0332 9.05859 11.2715 9.05859C8.5918 9.05859 7.18945 7.64648 7.06445 4.82227ZM16.7383 8.64844V7.24219C17.5781 7.55469 18.5273 7.71094 19.5859 7.71094C20.8711 7.71094 21.5137 7.28125 21.5137 6.42188C21.5137 5.79688 21.1191 5.48438 20.3301 5.48438H19.0176C17.3027 5.48438 16.4453 4.70312 16.4453 3.14062C16.4453 1.42188 17.666 0.5625 20.1074 0.5625C21.0449 0.5625 21.9336 0.699219 22.7734 0.972656V2.37891C21.9336 2.06641 21.0449 1.91016 20.1074 1.91016C18.7012 1.91016 17.998 2.32031 17.998 3.14062C17.998 3.76562 18.3379 4.07812 19.0176 4.07812H20.3301C22.1543 4.07812 23.0664 4.85938 23.0664 6.42188C23.0664 8.17969 21.9062 9.05859 19.5859 9.05859C18.5273 9.05859 17.5781 8.92188 16.7383 8.64844ZM29.8633 0.621094V1.96875H27.4609V9H25.9082V1.96875H23.5059V0.621094H29.8633Z" fill="#F48C06"/>
</svg>
