<svg width="22" height="10" viewBox="0 0 22 10" fill="none" xmlns="http://www.w3.org/2000/svg">
<path d="M0.0410156 9V0.621094H3.79102C5.50195 0.621094 6.35742 1.4082 6.35742 2.98242C6.35742 4.68945 5.1875 5.72266 2.84766 6.08203L2.625 4.69922C4.03125 4.44531 4.73438 3.88867 4.73438 3.0293C4.73438 2.33398 4.38672 1.98633 3.69141 1.98633H1.59375V9H0.0410156ZM7.38867 5.70703V0.621094H8.94141V5.70703C8.94141 7.04297 9.625 7.71094 10.9922 7.71094C12.3594 7.71094 13.043 7.04297 13.043 5.70703V0.621094H14.5957V5.70703C14.5957 7.94141 13.3945 9.05859 10.9922 9.05859C8.58984 9.05859 7.38867 7.94141 7.38867 5.70703ZM21.832 0.621094V1.96875H19.4297V9H17.877V1.96875H15.4746V0.621094H21.832Z" fill="#0077B6"/>
</svg>
